<svg id="svg23" xmlns="http://www.w3.org/2000/svg" xmlns:xlink="http://www.w3.org/1999/xlink" viewBox="0 0 163.09 37.43"><defs><style>.cls-1{fill:none;}.cls-2{clip-path:url(#clip-path);}.cls-3{fill:url(#linear-gradient);}.cls-4{fill:url(#linear-gradient-2);}.cls-5{fill:url(#linear-gradient-3);}.cls-6{fill:#2abdd2;}.cls-7{fill:#fff;}</style><clipPath id="clip-path"><rect class="cls-1" y="3.4" width="26.53" height="30.41"/></clipPath><linearGradient id="linear-gradient" x1="13.26" y1="11.36" x2="13.26" y2="33.34" gradientTransform="matrix(1, 0, 0, -1, 0, 40)" gradientUnits="userSpaceOnUse"><stop offset="0" stop-color="#05aac5"/><stop offset="1" stop-color="#71e0ec"/></linearGradient><linearGradient id="linear-gradient-2" x1="13.59" y1="8.78" x2="13.59" y2="34.61" xlink:href="#linear-gradient"/><linearGradient id="linear-gradient-3" x1="13.26" y1="6.19" x2="13.26" y2="36.57" xlink:href="#linear-gradient"/></defs><g class="cls-2"><path class="cls-3" d="M13.29,28.64a8.34,8.34,0,0,1-8.11-8.55c0-4.59,7.33-12.69,7.63-13l.36-.44.37.44c.3.32,7.81,8.42,7.81,13A8.25,8.25,0,0,1,13.29,28.64ZM13.23,8.29A51.12,51.12,0,0,0,9.9,12.5c-2.36,3.32-3.63,5.93-3.63,7.59a7.23,7.23,0,0,0,7,7.4,7.23,7.23,0,0,0,7-7.4c0-1.66-1.27-4.27-3.69-7.59C15.29,10.65,13.9,9.06,13.23,8.29Z"/><path class="cls-4" d="M13.56,31.22a11,11,0,0,1-11-11C2.59,14.3,10.83,6,11.2,5.65a.68.68,0,0,1,.81,0,.67.67,0,0,1,0,.81c-.13.07-8.31,8.28-8.31,13.75a9.86,9.86,0,1,0,19.71,0c0-2.24-1.43-5.35-4.15-9A52,52,0,0,0,15,6.34a.54.54,0,0,1,0-.81.53.53,0,0,1,.81,0c.37.37,8.74,8.77,8.74,14.68A11.06,11.06,0,0,1,13.56,31.22Z"/><path class="cls-5" d="M13.26,33.81A13.4,13.4,0,0,1,0,20.39c0-3.05,1.54-6.8,4.5-11.17A51.09,51.09,0,0,1,9,3.61a.52.52,0,0,1,.8,0,.53.53,0,0,1,0,.81A46.51,46.51,0,0,0,5.43,9.91C2.59,14,1.11,17.65,1.11,20.46A12.24,12.24,0,0,0,13.26,32.75,12.34,12.34,0,0,0,25.42,20.39c0-2.8-1.48-6.42-4.32-10.54a66,66,0,0,0-4.38-5.5.65.65,0,0,1,0-.81.66.66,0,0,1,.8,0c.31.44,9,9.55,9,16.85A13.36,13.36,0,0,1,13.26,33.81Z"/></g><path class="cls-6" d="M31.44,22.41l3.27-.3a4.28,4.28,0,0,0,1.21,2.43,3.61,3.61,0,0,0,2.43.76,3.76,3.76,0,0,0,2.44-.68,2.1,2.1,0,0,0,.83-1.6,1.44,1.44,0,0,0-.38-1A2,2,0,0,0,40,21.35c-.38-.16-1.29-.38-2.66-.76a8.9,8.9,0,0,1-3.81-1.68A4.47,4.47,0,0,1,32,15.57a4.23,4.23,0,0,1,.69-2.36,4.54,4.54,0,0,1,2.05-1.67,8.37,8.37,0,0,1,3.27-.61,7,7,0,0,1,4.71,1.37A4.88,4.88,0,0,1,44.44,16l-3.35.15a3,3,0,0,0-.91-1.83,3.24,3.24,0,0,0-2.13-.6,3.87,3.87,0,0,0-2.28.6,1.16,1.16,0,0,0-.53,1.07,1.11,1.11,0,0,0,.53,1,8.29,8.29,0,0,0,3.12,1.14,14.77,14.77,0,0,1,3.65,1.21,4.83,4.83,0,0,1,1.82,1.68A4.71,4.71,0,0,1,45.05,23a4.73,4.73,0,0,1-.76,2.66A4.65,4.65,0,0,1,42,27.51a10.13,10.13,0,0,1-3.65.6,7.14,7.14,0,0,1-4.86-1.44A6.29,6.29,0,0,1,31.44,22.41Z"/><path class="cls-6" d="M47.78,27.88V11.16H60.1V14h-9V17.7h8.36v2.81H51.13v4.56h9.28v2.81Z"/><path class="cls-6" d="M63.37,27.88V11.16h7.07a12.35,12.35,0,0,1,3.88.45,3.6,3.6,0,0,1,1.9,1.6A5.14,5.14,0,0,1,77,15.87,4.51,4.51,0,0,1,75.84,19a5.32,5.32,0,0,1-3.27,1.52,13.19,13.19,0,0,1,1.83,1.37,19.51,19.51,0,0,1,1.9,2.74l2,3.26h-4l-2.43-3.64a20.08,20.08,0,0,0-1.75-2.44,4.08,4.08,0,0,0-1-.68A5,5,0,0,0,67.48,21h-.69v6.91Zm3.35-9.65h2.51a12.25,12.25,0,0,0,3-.23,2.09,2.09,0,0,0,.91-.68,2.07,2.07,0,0,0,.3-1.22,1.93,1.93,0,0,0-1.75-2.05c-.3,0-1.06-.08-2.43-.08H66.64Z"/><path class="cls-6" d="M80.1,11.16h3.34v9.05A18.19,18.19,0,0,0,83.6,23a2.64,2.64,0,0,0,1.06,1.67,3.79,3.79,0,0,0,2.21.61A3.21,3.21,0,0,0,89,24.69a2.63,2.63,0,0,0,.92-1.44,23.16,23.16,0,0,0,.15-2.82V11.16H93.4V19.9a18.94,18.94,0,0,1-.3,4.26,4.93,4.93,0,0,1-1,2.13,5.68,5.68,0,0,1-2,1.37,7.85,7.85,0,0,1-3.2.53,9.28,9.28,0,0,1-3.65-.53,5.69,5.69,0,0,1-2-1.45,5.18,5.18,0,0,1-.91-1.82,20.27,20.27,0,0,1-.3-4.26Z"/><path class="cls-6" d="M96.9,27.88V11.16h5l3,11.33,3-11.33h5V27.81h-3.12V14.73l-3.27,13.15h-3.27L100,14.73V27.88Z"/><g id="text850"><path id="path1526" class="cls-7" d="M95,34.78v-.1l0-.13c-.06,0-.09,0-.08.08s0,0-.1,0-.08-.08-.23-.13a.37.37,0,0,1-.22-.3c-.09,0-.08-.48,0-1.47a6.39,6.39,0,0,1,.57-2.29c.13,0,.19-.07.17-.16H95l0-.21c-.05,0-.07,0-.07,0a.46.46,0,0,0,.18-.1l.21-.18s-.09-.06-.26-.12c0,0,0,0,0-.08l.06-.07h.1A11.11,11.11,0,0,1,97,26.41c.75-1,1.31-1.51,1.65-1.48,0-.07.16-.17.49-.32a3,3,0,0,1,1-.27q.38,0,.42.27t.09.12a2.64,2.64,0,0,0,.44,0c.22,0,.32.15.29.5a7.58,7.58,0,0,1-.18.95c0,.21-.07.4-.11.57a1.36,1.36,0,0,0,0,.34h-.1l0,.13v.06a.19.19,0,0,0-.1,0l-.1,0a1.18,1.18,0,0,1,0,.59,1.17,1.17,0,0,0,0,.45,2.63,2.63,0,0,0-.31.94,15.68,15.68,0,0,0-.28,1.76h0c0,.34-.06.65-.08.93a1,1,0,0,0,.13.56l0,.07v.07s.06,0,.12.08.2,0,.46-.08a5.59,5.59,0,0,0,.82-.59,7.93,7.93,0,0,0,1.07-1l.23-.25a.31.31,0,0,1,.33,0l-.13,0H103V31s0,0-.06.08v0c-.06.06-.09.11-.08.15l-.1,0h-.07a.15.15,0,0,1,0,.13.68.68,0,0,1-.18.13l-.16.1a.38.38,0,0,0,.06.13l.08-.12c0-.1.11-.16.18-.17a.42.42,0,0,0-.18.37c-.1-.05-.23,0-.39.14s0,0,0,.07l.1,0a.22.22,0,0,1,.15-.1.68.68,0,0,0-.21.17.39.39,0,0,1-.11.13,1.71,1.71,0,0,1-.27.25.53.53,0,0,1-.19.27.55.55,0,0,1-.24.18c-.19.12-.38.25-.58.4a1.51,1.51,0,0,1-.41.21,1.28,1.28,0,0,1-.7.12.73.73,0,0,1-.31-.25,2.48,2.48,0,0,1-.17-.38l0-.17,0-.2,0-.09a.32.32,0,0,1,.08-.09v-.1h0v-.1a1.23,1.23,0,0,0,0-.31h0a8.24,8.24,0,0,1,.11-.94,4.56,4.56,0,0,0,.13-.81l.09-.49a.59.59,0,0,1,0-.25c0-.12,0-.22.05-.31a4,4,0,0,1-.24.82,6.11,6.11,0,0,1-.29.67c-.25.43-.54.9-.89,1.41a12.77,12.77,0,0,1-1,1.45,6,6,0,0,1-1.12,1A1.29,1.29,0,0,1,95,34.78Zm5.31-8.08c-.25,0-.38-.05-.41-.2a.81.81,0,0,1,.25-.73.73.73,0,0,0,.27-.59h0v0h0l0-.1h0a1,1,0,0,0-.76-.27c-.61,0-1.25.55-1.92,1.55A16.65,16.65,0,0,0,96,29.56a18,18,0,0,0-.89,2.58A5.38,5.38,0,0,0,94.85,34a.42.42,0,0,0,.29.08,1,1,0,0,0,.42-.1,3.29,3.29,0,0,0,1-.75,14.19,14.19,0,0,0,1.07-1.28,12.92,12.92,0,0,0,1-1.4,7.46,7.46,0,0,0,.65-1.2.13.13,0,0,1,0-.11.48.48,0,0,0,0-.17.51.51,0,0,1,.27,0v-.1q.12-.06.09-.09s0-.08.07-.18c0,.07.08-.12.21-.55s.29-.93.41-1.4Zm-5.15,3.24v-.07l0-.1h.1a.48.48,0,0,0,0,.17Z"/><path id="path1528" class="cls-7" d="M104.22,33.3c-.27,0-.4-.13-.4-.38a.66.66,0,0,0,0-.24.58.58,0,0,1,.09-.25c.56-1.55,1-2.76,1.29-3.64a9.87,9.87,0,0,0,.5-2.88l-.44.45c-.27.29-.59.65-1,1.05a2,2,0,0,1-1.52.71c-.25,0-.38-.06-.4-.17-.09-.53.15-.78.73-.74a3.4,3.4,0,0,0,1.43-.79,5.21,5.21,0,0,0,1.27-1.59A1.2,1.2,0,0,0,106,24a.38.38,0,0,1,.43-.27c.23,0,.35.05.38.2a12.27,12.27,0,0,1-.58,2.77,12.89,12.89,0,0,0-.58,3.38h0c.07,0,.1,0,.09-.08v-.1a22.11,22.11,0,0,1,1.08-2.44,16.48,16.48,0,0,0,.88-1.45.36.36,0,0,1,.25,0l0-.07,0,0h-.1v-.07l0-.1s.11-.17.27-.42.36-.57.54-.88l.51-.8a1.8,1.8,0,0,1,.27-.39.85.85,0,0,1,.4-.27.6.6,0,0,1,.5.15.49.49,0,0,1,.23.3v.17a20.22,20.22,0,0,1-.9,3.29q-.54,1.61-.84,2.88a5,5,0,0,0-.11,1.15,1.23,1.23,0,0,0,.08.43.25.25,0,0,1,.13.18.43.43,0,0,0,.09.12.75.75,0,0,0,.46-.08,4.51,4.51,0,0,0,.86-.59,7.28,7.28,0,0,0,1.06-1,1.28,1.28,0,0,1,.23-.24.25.25,0,0,1,.3-.05h-.1l-.06,0v.09s0,0-.11.13a.25.25,0,0,1,0,.07.11.11,0,0,0,0,.07l-.13,0h0l0,.1v.07a3,3,0,0,0-.34.2.09.09,0,0,0,0,.12l.09-.11c0-.1.11-.16.17-.17a.4.4,0,0,0-.17.37c-.13-.07-.25,0-.36.13s-.06,0,0,.1l.06-.08a.18.18,0,0,1,.12-.09.46.46,0,0,0-.15.16c0,.08-.07.12-.11.13a1.46,1.46,0,0,1-.3.22.93.93,0,0,1-.19.3,1.22,1.22,0,0,1-.24.18c-.19.12-.38.26-.58.41a1.91,1.91,0,0,1-.41.21,4.45,4.45,0,0,1-.73.12,1,1,0,0,1-.44-1s-.09,0-.13-.12a.25.25,0,0,0,.06-.25v0a.28.28,0,0,1,0-.11l0-.1,0-.1a.26.26,0,0,0,.06-.25l0,0,0,0,0,0v0h0c.08-.35.17-.75.28-1.17l.28-.94c.12-.38.32-1,.6-1.85a5.27,5.27,0,0,0,.38-1.8.37.37,0,0,1-.16.06,3.72,3.72,0,0,0-.89,1c-.3.48-.51.8-.62,1a16,16,0,0,0-.89,1.55c-.31.6-.63,1.21-1,1.84a7.19,7.19,0,0,1-.37.64c-.07.13-.16.31-.28.56-.32.76-.57,1.39-.74,1.87a.75.75,0,0,1-.52.16Zm1.32-3.06.07,0h.07l0-.06v-.07h-.06A.15.15,0,0,0,105.54,30.24Zm2.37-4.1H108l.1,0s0-.06,0-.06l-.13,0h-.07l.08.06Zm-2.09.53a.11.11,0,0,0-.09.08c0,.07.07.09.18.07l0,0A.23.23,0,0,1,105.82,26.67Z"/><path id="path1530" class="cls-7" d="M112.77,31.73l0-.1,0-.14c-.07,0-.1,0-.09.09s0,0-.1.05-.08-.09-.22-.13a.37.37,0,0,1-.23-.31c-.08,0-.08-.47,0-1.47a6.48,6.48,0,0,1,.57-2.28c.13,0,.19-.08.17-.17h-.06l0-.21s-.07,0-.07,0a.35.35,0,0,0,.19-.1,1,1,0,0,1,.21-.17.76.76,0,0,0-.27-.13s0,0,0-.07l0-.08h0l.07,0a11.36,11.36,0,0,1,1.72-3.13c.76-1,1.31-1.51,1.66-1.48,0-.06.15-.17.49-.32a3.12,3.12,0,0,1,.94-.26q.38,0,.42.27t.09.12a2.64,2.64,0,0,0,.44,0c.22,0,.32.15.29.49a6.25,6.25,0,0,1-.18,1c0,.21-.07.39-.11.56a1.23,1.23,0,0,0,0,.34h-.1l0,.13v.07s-.08,0-.09.05l-.1,0a1.26,1.26,0,0,1,0,.58,1,1,0,0,0,0,.45,2.71,2.71,0,0,0-.32.94A16.05,16.05,0,0,0,117.9,28h0c0,.35-.06.66-.08.94a.91.91,0,0,0,.13.55l0,.08v.06s.06,0,.12.08.2,0,.46-.08a5.26,5.26,0,0,0,.82-.58,7.39,7.39,0,0,0,1.07-1l.23-.24a.29.29,0,0,1,.33-.06l-.13,0h-.07v.1a.14.14,0,0,0-.06.08v0c-.06.06-.09.11-.08.15l-.1,0h-.06a.17.17,0,0,1,0,.14,1,1,0,0,1-.18.13l-.16.09a.31.31,0,0,0,.06.13l.08-.12a.25.25,0,0,1,.18-.16.43.43,0,0,0-.18.37c-.1-.05-.23,0-.38.13s0,0,0,.07a.21.21,0,0,0,.09,0,.24.24,0,0,1,.16-.09A.39.39,0,0,0,120,29q-.09.12-.12.12a1,1,0,0,1-.26.25.57.57,0,0,1-.2.27.44.44,0,0,1-.24.18l-.58.41a1.54,1.54,0,0,1-.41.2,1.09,1.09,0,0,1-.69.12.64.64,0,0,1-.32-.25,2.59,2.59,0,0,1-.17-.38l0-.17,0-.19,0-.1.09-.08,0-.1h0v-.1a1.23,1.23,0,0,0,0-.31h0c0-.3.06-.61.11-.94a4.58,4.58,0,0,0,.14-.81l.08-.49a.53.53,0,0,1,0-.24c0-.12,0-.23.05-.32a3.57,3.57,0,0,1-.24.83,6.86,6.86,0,0,1-.29.66c-.25.43-.54.9-.89,1.42a12.64,12.64,0,0,1-1,1.44,5.7,5.7,0,0,1-1.11,1.05,1.33,1.33,0,0,1-1,.25Zm5.3-8.09c-.25,0-.38-.05-.41-.2a.83.83,0,0,1,.25-.73.69.69,0,0,0,.28-.59h0v0h0V22h0a1,1,0,0,0-.77-.28q-.92.06-1.92,1.56a17.14,17.14,0,0,0-1.66,3.22,20.32,20.32,0,0,0-.89,2.58,5.67,5.67,0,0,0-.23,1.85.39.39,0,0,0,.29.09.93.93,0,0,0,.42-.11,3.13,3.13,0,0,0,1-.75,15.89,15.89,0,0,0,1.08-1.27c.37-.48.7-.94,1-1.4a8.7,8.7,0,0,0,.64-1.21.11.11,0,0,1,0-.1.48.48,0,0,0,0-.17.52.52,0,0,1,.27-.05v-.1c.09,0,.12-.06.09-.08a.55.55,0,0,1,.07-.19c0,.07.08-.11.21-.55s.29-.92.41-1.4Zm-5.15,3.24v-.16h.1a.32.32,0,0,0,0,.17Z"/><path id="path1532" class="cls-7" d="M123.47,20.26c0-.07,0-.19.17-.38a.64.64,0,0,1-.06.22A.43.43,0,0,1,123.47,20.26Zm-1.57,7.37h0a.35.35,0,0,1,0,.34l-.06.42v.41a1.14,1.14,0,0,1,0,.3.31.31,0,0,1,.1.19s0,.05.08.09a.87.87,0,0,0,.47-.05,4.43,4.43,0,0,0,.89-.63c.41-.34.77-.66,1.06-.93a1.82,1.82,0,0,1,.24-.25c.11-.11.21-.14.29-.08s-.08,0-.1,0h0s-.06.06,0,.08l0,.07,0,0a.31.31,0,0,1,0,.11.08.08,0,0,0,0,.08h-.1s0,0-.07,0,.08.05.08.09a2.45,2.45,0,0,1-.4.24.21.21,0,0,0,.1.16.45.45,0,0,1,.22-.31.36.36,0,0,0-.15.33.5.5,0,0,0-.19.1.93.93,0,0,1-.19.07s0,.05,0,.06l.06,0a.35.35,0,0,1,.15-.1c-.06.06-.11.13-.17.2a.25.25,0,0,1-.15.13l-.15.13a.2.2,0,0,1-.15.09.51.51,0,0,1-.19.31l-.24.18c-.14.09-.33.21-.55.37a2.14,2.14,0,0,1-.37.23,4.17,4.17,0,0,1-.73.13,1,1,0,0,1-.43-.51.24.24,0,0,0-.1,0l0-.06,0-.06,0-.14a2.88,2.88,0,0,1,.08-.93h0c.1-.75.24-1.65.42-2.71a15.23,15.23,0,0,1,.42-1.91.48.48,0,0,0,.16-.27.5.5,0,0,0,0-.34.13.13,0,0,1,.06,0,.4.4,0,0,1,.09-.49q0,.21,0,.24a.2.2,0,0,0,.15-.09v0l0-.14h.1a7.25,7.25,0,0,1,.12-1.29c.1-.59.23-1.2.4-1.84h0a.24.24,0,0,0,0-.1l.11-.36a.24.24,0,0,1,0-.21l.08-.36c.07-.24.14-.51.2-.82s.13-.58.2-.82a1.69,1.69,0,0,0,.09-.46s0,0,.05-.08a.22.22,0,0,1,.11-.15.64.64,0,0,1,0-.48,2.46,2.46,0,0,0,.22-.52.61.61,0,0,1,.62-.41c.33,0,.48,0,.43.16a1,1,0,0,1-.21,1q-.33.43-.27.63l-.23.41c-.14.28-.24.49-.3.64l-.32,1.52v0h.14v.07a.13.13,0,0,0-.07.15c0,.07,0,.1,0,.11a.66.66,0,0,0,0-.2.13.13,0,0,0-.11,0,1.38,1.38,0,0,1-.15.54l-.11.32a.13.13,0,0,1-.06,0l0,.16,0,.1,0,0h0v0s0,0,.08.06c-.11,0-.17.06-.18.13v.07s0,0,0,0h.06a.25.25,0,0,1,0-.07,1.23,1.23,0,0,0,.13-.26,1,1,0,0,1,0,.35l-.07.22h0s0-.08,0-.16-.11.07,0,.17h-.1v.1l0,.07h-.1v.06s0,0,0,.06-.16.17-.23.45-.07.43,0,.48h0l-.05-.06h0l0,.1,0,0H123v0h0a.46.46,0,0,1-.17.17l-.12.09a.44.44,0,0,1,0,.09c.09,0,.14,0,.17,0v0h0l-.19,0a.31.31,0,0,1,0,.22c0,.06,0,.1.06.12l-.09.05h0c0,.06.06.09.15.07v0h0l-.07,0h0v0a.47.47,0,0,0-.1.22.12.12,0,0,1-.08.15l0,.07.07,0c-.08.08-.07.18,0,.3-.21.11-.21.23,0,.38l-.13,0-.1,0a.21.21,0,0,0,.05.09l0,0a.13.13,0,0,1,.09-.05v0h0a.68.68,0,0,1-.12.12.22.22,0,0,0-.08.09c0,.06.11.05.16,0a1.78,1.78,0,0,1-.22.48.68.68,0,0,0-.09.5h-.1a.22.22,0,0,1,0,.18.15.15,0,0,0,0,.17c.09,0,.13-.05.09-.25a.18.18,0,0,1,.15,0,.27.27,0,0,0-.16.3c.05.13,0,.2-.13.23a.33.33,0,0,1,0,.24.74.74,0,0,0,0,.21h-.06a.64.64,0,0,0,0,.31.17.17,0,0,1,0,.21.13.13,0,0,1,0,.06s0,0,0,0l.09-.12a.27.27,0,0,1-.1.22Zm1.53-7.2s0-.08.08-.11v0h0a.19.19,0,0,0-.09.05Zm-.23,1,0-.07C123.23,21.44,123.22,21.46,123.2,21.46Zm-.14.58a.67.67,0,0,0-.07-.17s.06-.08.19-.13a.13.13,0,0,1-.08.15A.13.13,0,0,0,123.06,22Zm-.07.21h0v0s0-.07,0-.13h0l.1,0c0,.07,0,.12,0,.13a.21.21,0,0,1-.09.05Zm-.12.5a.22.22,0,0,1,.08-.15v0h0Zm-.27,1.38,0-.28a.67.67,0,0,1,.08-.29.72.72,0,0,1,0,.28.42.42,0,0,0,0,.24l0,0Zm-.32,1h.07V25h-.07l0,.06h0Zm0,.66,0-.1a.32.32,0,0,0,0-.17h0l.1,0a.91.91,0,0,0-.06.28Zm-.16.85a3.58,3.58,0,0,1,0,.55l-.06,0h0a1,1,0,0,1,.11-.57Z"/><path id="path1534" class="cls-7" d="M127.61,37a6.27,6.27,0,0,1,.41-4.17,28.09,28.09,0,0,1,2.28-4.66.35.35,0,0,0,0,.21.18.18,0,0,1,.13-.06c0-.09,0-.14,0-.17l-.13,0,.24-.35c.16-.71.35-1.48.6-2.32a11.26,11.26,0,0,0,.41-2.77c-.11,0-.15,0-.13.06a.17.17,0,0,1,.06.12c0,.06-.24.43-.59,1.13s-.72,1.45-1.16,2.25-.81,1.54-1.22,2.22-.64,1-.75,1a2.07,2.07,0,0,0-.3.22q-.27.22-.63-.09a.69.69,0,0,1-.25-.44,36.47,36.47,0,0,1,1.06-4q.75-2.34,1-3.63c0-.11-.05-.12-.15,0s-.06,0-.08-.09a3,3,0,0,1,.14-.57c0-.16.09-.33.15-.5a2.48,2.48,0,0,0,.19-.51c.09-.13.3-.19.62-.18s.41.21.28.64-.39,1.21-.63,1.92-.48,1.38-.71,2l0,.2c-.14.41-.35,1-.64,1.88a5.24,5.24,0,0,0-.34,1.77,2.59,2.59,0,0,0,1-1.07,18.51,18.51,0,0,0,1.28-2.1c.44-.78.84-1.54,1.21-2.29s.65-1.34.84-1.71a9.09,9.09,0,0,0,.64-1.65c0-.23.22-.35.58-.37s.45.34.34.79a8.75,8.75,0,0,1-.56,1.67q-.42,1-.87,2.34a10.46,10.46,0,0,0-.54,2.79.8.8,0,0,1,.2-.21,1,1,0,0,0,.2-.2l.29-.15a.71.71,0,0,1,.31-.16.18.18,0,0,0,.12-.09.68.68,0,0,1,.18-.13.3.3,0,0,1,.16-.07.39.39,0,0,0,.21-.17.12.12,0,0,1-.07.15c-.07,0-.1,0-.1,0s0,.06,0,0c.19-.12.27-.23.26-.32a.33.33,0,0,0,.38-.13c-.13.18-.24.23-.35.16q.06.13.09.12l.15-.13a.65.65,0,0,0,.18-.16.26.26,0,0,1,.12.08s0,0,0,0,0-.08.08-.12h.07c.07-.1.12-.12.13,0l.07,0,.11-.16a.26.26,0,0,1-.15.3l-.25.18c-.43.28-.86.58-1.31.91a5.18,5.18,0,0,0-1.1,1.14,5.75,5.75,0,0,1-.26.87,1.73,1.73,0,0,0-.11.56s0,.08-.08.15c0,.51-.08,1-.12,1.49a2.46,2.46,0,0,0,.15,1l-.16.06V31.5h0l-.1,0h-.07l0,.17a.34.34,0,0,1,0,.2h0l.08.05a6.39,6.39,0,0,0-.57,1.67,8,8,0,0,1-.53,1.83A4.23,4.23,0,0,1,129,36.8a2.22,2.22,0,0,1-.73.5q-.44.21-.63-.27Zm4-14.46h-.06l-.07,0,0,.1v0h.1s0-.07,0-.14Zm-2.41,4.07h-.13c0,.07,0,.1.08.09h0l.16,0-.1,0a.19.19,0,0,1,0-.1Zm2.13-.53c.1,0,.13,0,.1-.05s-.09-.13-.16-.11l0,.09a.1.1,0,0,1,0,.07Zm-3.18,10.72q1.11-.91,1.85-4.38a.13.13,0,0,1,0-.06s0-.07,0-.07h0a.58.58,0,0,1,.07-.18s0,0,.06-.05a.82.82,0,0,0-.06-.16,4.72,4.72,0,0,0,.3-1.21c.17-.74.25-1.11.25-1.14l-.4,0v-.07a.44.44,0,0,1,.16-.06s0-.07,0-.07c-.23,0-.42.25-.58.64l.12.09a1,1,0,0,0-.34.43c0,.11-.14.3-.41.55h0v0a.47.47,0,0,1,.24,0v.09c-.31.08-.44.11-.39.11a.63.63,0,0,1,.19.13,3.31,3.31,0,0,0-.58,1c-.2.56-.38,1.14-.55,1.74a9.59,9.59,0,0,0-.26,1.68c0,.53.08.83.29.91Zm2.06-8.11s0,0,.06,0l0,0-.08-.06a.12.12,0,0,1,0,.08Z"/><path id="path1536" class="cls-7" d="M136.06,19.22c-.14-.18-.38-.12-.72.19a4.39,4.39,0,0,1-.82.59s0,0,0,.07l0,.1a.66.66,0,0,0-.35.16c-.1.06-.17,0-.2-.17h-.13a.35.35,0,0,1-.1-.15l0-.17a.15.15,0,0,1,0-.1s0-.08,0-.14a3,3,0,0,1,1.06-.76c.55-.28,1.14-.54,1.78-.79l.08-.35h0s0,0,0,0l.11-.36a.56.56,0,0,1,0-.24l0-.42a.38.38,0,0,0,.05-.11l.11-.15a.89.89,0,0,1,.07-.56c.09-.17.16-.34.23-.48s.15-.24.39-.28.38,0,.4.11a1.9,1.9,0,0,1,0,.3.41.41,0,0,1-.18.34l-.43,1.47v0h0a.28.28,0,0,0,.14,0v0h0a.29.29,0,0,0-.07.22.05.05,0,0,1-.05.07.45.45,0,0,0,0-.2h-.1a.51.51,0,0,1,0,.27c.42-.11.78-.22,1.11-.32a5.81,5.81,0,0,1,.82-.21.07.07,0,0,1,0-.07v.1l.06,0h.07v0s0-.05,0-.07a.19.19,0,0,0,.1-.05.11.11,0,0,1,.09,0l0,.1v0l.16,0,.59-.13s.06.05.15,0h0a.07.07,0,0,0,0-.07q.28,0,.33.12c0,.05.19,0,.4,0,0,.08.07.14.1.15a1.14,1.14,0,0,0-.15.17.15.15,0,0,1-.16.06l0,.06v.07q-.24,0-.3-.12H141a.25.25,0,0,1,.07-.18.37.37,0,0,0-.15-.08.58.58,0,0,0-.14.16v.1l0,.06a.47.47,0,0,0-.3.22.78.78,0,0,0-.51.06.65.65,0,0,1-.51,0l-.08.12a3.4,3.4,0,0,0-1,.22,9,9,0,0,0-1.07.38v0h0c-.08,0-.13.05-.12.09v-.1l-.1,0,0,.1h-.07s0,.06.08.06-.15.08-.17.2v0s.05,0,.05.06h.07a.07.07,0,0,1,0-.07,1.31,1.31,0,0,0,.12-.26.83.83,0,0,1,0,.35l-.06.21h0v0s0-.07,0-.13-.11.08,0,.17H137l0,.1v.07h-.1v.07h0c-.09,0-.16.18-.22.49s-.07.45,0,.51h0l0-.1s0,0,0,0h0l0,.1,0,0h.13v0h0a.7.7,0,0,1-.18.17s-.08,0-.12.09a.21.21,0,0,1,.05.09h.07l.1,0V21h-.1a.19.19,0,0,0-.11,0,.24.24,0,0,1,0,.21.18.18,0,0,0,.06.13l-.09.08h0c0,.07.06.1.15.08v0h-.13v0a.32.32,0,0,0-.1.19.21.21,0,0,1-.07.19V22h.07c-.11.06-.1.17,0,.31-.18.14-.18.27,0,.37l-.23.07a.12.12,0,0,0,0,.07s0,0,0,0l0,0a.1.1,0,0,1,.07,0v.1a.43.43,0,0,1-.11.12.11.11,0,0,0-.09.08l.16,0a4.83,4.83,0,0,1-.23.45.61.61,0,0,0-.08.49s-.08,0-.1,0a.33.33,0,0,1,0,.18.15.15,0,0,0,0,.17c.09,0,.12-.08.09-.26h0l.1,0a.35.35,0,0,0-.14.37c0,.12,0,.2-.14.22a.31.31,0,0,1,0,.21.74.74,0,0,0,0,.21s0,0-.06,0a.51.51,0,0,0,0,.28c0,.08,0,.14,0,.18a.34.34,0,0,1,.06.12h0l.09-.08c0,.08,0,.13-.11.15v.07a.36.36,0,0,1,0,.33,3.91,3.91,0,0,0-.07.39v.41a1.21,1.21,0,0,1,0,.31.47.47,0,0,1,.1.22l.09.08s.2,0,.45-.11a3.46,3.46,0,0,0,.9-.56,13.47,13.47,0,0,0,1.06-1,1.28,1.28,0,0,1,.23-.24q.18-.14.3-.06c-.07,0-.11,0-.13.06a.1.1,0,0,0,0,.08l0,.07,0,0s0,.05-.06.08l0,0h-.17a.32.32,0,0,1,.1.16l-.41.24.09.12.09-.12c.05-.1.09-.15.14-.16a.36.36,0,0,0-.15.33.34.34,0,0,0-.38.17s0,0,0,.07l.06,0a.38.38,0,0,1,.16-.09.42.42,0,0,0-.18.17c-.06.07-.1.12-.15.12a1.24,1.24,0,0,1-.3.26c0,.23-.17.37-.44.42l-.55.37a1.8,1.8,0,0,1-.37.23,2.21,2.21,0,0,1-.73.13,1.15,1.15,0,0,1-.43-.51l-.1,0v0a.44.44,0,0,0-.05-.09l0-.1a2.57,2.57,0,0,1,.08-.94h0c.09-.76.23-1.68.42-2.73a18.53,18.53,0,0,1,.42-1.92c.06,0,.11-.12.16-.27a.57.57,0,0,0,0-.34h.06A.39.39,0,0,1,136,21q0,.21,0,.24l0,0a.21.21,0,0,1,.13,0v0l0-.13h.1a6.47,6.47,0,0,1,.28-1.92,1.12,1.12,0,0,0-.37.23Zm.92.39,0-.11A.13.13,0,0,1,137,19.61Zm-.14.57a.34.34,0,0,0-.06-.16c0-.05.05-.1.18-.17a.21.21,0,0,1-.07.18.15.15,0,0,0,0,.15Zm-.06.25h0v-.06s0-.05,0-.14h0l.1,0c0,.1,0,.15,0,.17S136.78,20.41,136.78,20.43Zm-.12.46c0-.07,0-.11.08-.11v0h0l-.06,0,0,0Zm-.28,1.38,0-.27a.81.81,0,0,1,.09-.29.92.92,0,0,1,0,.27.72.72,0,0,0,0,.28h-.07Zm-.3,1h0l0,0h0v-.07h-.07v.1Zm-.07.63v-.1a.48.48,0,0,0,0-.17h0l.09,0a.83.83,0,0,0,0,.29Zm-.15.88a2.92,2.92,0,0,1-.05.52s0,0-.06,0a1.94,1.94,0,0,1,0-.27.64.64,0,0,1,.12-.29Z"/><path id="path1538" class="cls-7" d="M141.85,26.46a.23.23,0,0,1-.16-.11h0v0a.31.31,0,0,0-.17,0c0-.09,0-.15,0-.17a1.06,1.06,0,0,1,0-.85l.23-.82c.18-.58.38-1.36.63-2.33s.42-1.83.6-2.63a11,11,0,0,0,.25-1.34,1.3,1.3,0,0,1,0-.39.53.53,0,0,1,.48-.39c.4-.06.64,0,.72.25a1,1,0,0,1,0,.59,1.18,1.18,0,0,1-.23.48v.07h0a2.74,2.74,0,0,0-.55,1.15c-.21.63-.42,1.33-.63,2.09l-.54,2a5.89,5.89,0,0,0-.23,1.41,1,1,0,0,1,0,.24.42.42,0,0,0,.11.22.49.49,0,0,0,.38,0l.45-.14a4.9,4.9,0,0,0,.85-.63c.42-.34.78-.66,1.1-.94a1,1,0,0,1,.23-.24c.1-.11.19-.14.29-.09a.5.5,0,0,1-.19.07V24h0s0,0-.05.07v0s0,.06,0,.11a.1.1,0,0,0,0,.07l-.1,0s0,0-.06,0a.08.08,0,0,1,0,.1,1.22,1.22,0,0,1-.33.26.38.38,0,0,0,.06.13c0-.11.06-.22.25-.32a.54.54,0,0,0-.18.34.58.58,0,0,0-.19.1.93.93,0,0,1-.19.07c-.08.06-.08.08,0,.06a.21.21,0,0,0,.09-.05.24.24,0,0,1,.16-.09l-.21.2a.39.39,0,0,1-.11.13.44.44,0,0,0-.15.12.22.22,0,0,1-.15.1.51.51,0,0,1-.19.3,1.22,1.22,0,0,1-.24.18l-.55.4a1.38,1.38,0,0,1-.41.21,4.46,4.46,0,0,1-.73.13l-.15-.11a.47.47,0,0,1-.13-.15Zm1.7-10c-.23-.37-.2-.62.07-.76a1.2,1.2,0,0,1,.78-.24c0,.07.09.13.23.17a.4.4,0,0,1,.25.44q.09.49-.51.63a.64.64,0,0,1-.82-.24Z"/><path id="path1540" class="cls-7" d="M146.44,21.57c.11,0,.16-.07.14-.16h-.06v-.07l0-.14h-.07a2.79,2.79,0,0,0,.39-.34s-.05-.06-.11-.05a.21.21,0,0,1-.15-.07c-.05,0-.05,0,0,0l.09-.08h.07a10.3,10.3,0,0,1,1.81-3.15c.83-1,1.42-1.5,1.77-1.46,0-.07.15-.18.49-.33a2.23,2.23,0,0,1,.94-.26q.38,0,.42.27l0,.1h.51c.22,0,.32.14.28.46s0,.62-.07,1a.61.61,0,0,1-.39.48,2.15,2.15,0,0,1-.53.09c-.25,0-.39-.07-.43-.27a.72.72,0,0,1,.26-.69c.24-.2.32-.39.25-.56h0v0a.19.19,0,0,0-.05-.09h0a1.14,1.14,0,0,0-.77-.28c-.67.05-1.41.6-2.21,1.65a12.68,12.68,0,0,0-1.81,3.38,8.46,8.46,0,0,0-.5,2.07,2.26,2.26,0,0,0,.28,1.62,1.14,1.14,0,0,0,1.08.5,2.67,2.67,0,0,0,1.27-.53,11.18,11.18,0,0,0,1.52-1.31,13.39,13.39,0,0,0,1.31-1.9,1.39,1.39,0,0,0,.16-.3.19.19,0,0,1,.24-.15l0,.08h0v.1c.07,0,0,0-.08.12l0,.07v.07a.21.21,0,0,1-.09.05h0a.3.3,0,0,1,.1.15.47.47,0,0,0-.15.13s0,.07-.06.08h.1c0-.09,0-.14,0-.15l0,.15,0,0v0l0,.13v0a1.52,1.52,0,0,0-.28.18l-.11.16h.1l.06-.08a.19.19,0,0,1,.11-.12.56.56,0,0,0-.13.23.77.77,0,0,1-.1.18.41.41,0,0,0-.11.16l-.08.12a.64.64,0,0,1-.12.29c-.05.1-.11.19-.16.27s-.29.33-.46.52-.26.28-.32.29a.62.62,0,0,1-.19.14l-.15.09c-.29.28-.61.55-1,.82a3.11,3.11,0,0,1-1,.48,2.82,2.82,0,0,1-1.13,0l0-.1V25.5a.18.18,0,0,0-.13.06H147a1.42,1.42,0,0,1-1-1.13,5.14,5.14,0,0,1,0-1.32A4.08,4.08,0,0,1,146.44,21.57Zm5.73.35v0h0Zm-5.52-.9q0-.14-.09-.15l.06,0h.1a.3.3,0,0,0,0,.17Z"/><path id="path1542" class="cls-7" d="M154.37,24.61a1.55,1.55,0,0,1,.42-1.74,8.13,8.13,0,0,1,1.94-1.43,10.27,10.27,0,0,1,2.11-.87c.65-.21,1-.26,1-.17s.08,0,.26-.25.15-.7-.17-1.23a2.12,2.12,0,0,0-1.1-.84,9,9,0,0,0-1.33-.35,7.92,7.92,0,0,1-1.15-.32.72.72,0,0,1-.53-.69.78.78,0,0,1,.37-.68,4.82,4.82,0,0,1,1.11-.7,9.89,9.89,0,0,1,2.51-.84c.91-.18,1.42-.11,1.54.21a.36.36,0,0,0,.23.3c.21.29.09.52-.36.71s-.66.15-.64-.13c-.06,0-.16,0-.3-.15s-.22-.14-.28-.09a2.14,2.14,0,0,0-1.15-.11,5.51,5.51,0,0,0-1.12.26,6,6,0,0,0-1,.59c-.26.2-.39.34-.38.41s.3.18.84.3a6.83,6.83,0,0,1,1.7.52,4,4,0,0,1,1.51,1.08,1.94,1.94,0,0,1,.33,1.89l.57,0s-.07.06-.16.06l-.1,0c0,.07.05.1.18.07s.23-.09.25-.14a.54.54,0,0,0,.39.07.34.34,0,0,1-.41,0c0,.13.1.16.25.09s.27-.07.31,0H162s0,0,.06,0l.24,0h.21c0,.07-.29.11-.83.14l-1.16,0a8.58,8.58,0,0,1-.51,1.18c-.23.4-.43.62-.61.65,0,.09.05.14.1.15l-.34.23v0h0a5.4,5.4,0,0,1-.87.73,10.81,10.81,0,0,1-1.45.9,5.06,5.06,0,0,1-1.51.53.88.88,0,0,1-1-.34Zm1.19-1.84a1.43,1.43,0,0,0-.59.75.64.64,0,0,0,0,.44c.11.21.37.27.79.2a4.48,4.48,0,0,0,1.44-.55,6.94,6.94,0,0,0,1.57-1.23,5,5,0,0,0,1.12-1.8,5.19,5.19,0,0,0-1.55.34,6.56,6.56,0,0,0-1.33.57v.1c-.24.11-.36.18-.37.23s-.1-.05-.21,0v.1h0a.32.32,0,0,0-.14.16.29.29,0,0,1-.16.1l-.23.41-.13,0-.1,0v.13l-.17,0Zm.24-.21a.23.23,0,0,0,.15-.13l-.1,0h-.07l0,.1Zm.27-.42a.34.34,0,0,0,.12-.06.64.64,0,0,1,.15-.13C156.14,22,156.05,22.05,156.07,22.14Zm3.41-1.62h.1l.16,0c0-.07-.1-.09-.28-.05v.09Z"/></g></svg>